<svg height="512" viewBox="0 0 512 512" width="512" xmlns="http://www.w3.org/2000/svg"><g id="outline"><path d="m279.979 130.2h16v16h-16z" transform="matrix(.449 -.894 .894 .449 35.25 333.544)"/><path d="m254.912 144.471h16v16h-16z" transform="matrix(.449 -.894 .894 .449 8.678 319.009)"/><path d="m251.38 115.844h16.001v15.999h-16.001z" transform="matrix(.449 -.894 .894 .449 32.334 300.096)"/><path d="m407.491 36.744-.95-1.349a8 8 0 0 0 -10.185-2.517l-28.691 14.68-9.265-12.358a8 8 0 0 0 -13.99 2.272l-2.989 8.975a38.334 38.334 0 0 1 -15.027 19.675 25 25 0 0 0 -3.165 2.537l-2.129-17.259a8 8 0 0 0 -11.9-5.972l-21.346 12.152-17.625-8.85a8 8 0 0 0 -11.462 8.57l4.7 26.082a48.278 48.278 0 0 0 -38.3 37.082l-172.811 88.414c-.015.008-.026.018-.042.026a8 8 0 0 0 -4.314 7.096v256a8 8 0 0 0 8 8h400a8 8 0 0 0 8-8v-256a311.072 311.072 0 0 0 -56.509-179.256zm-10.091 13.57a294.955 294.955 0 0 1 50.5 157.686h-91.618l-10.665-16h30.383a31.984 31.984 0 0 0 13.962-60.767 31.987 31.987 0 0 0 -11.247-37.185q.147-.5.275-1.014a49.38 49.38 0 0 0 -2.735-31.9zm-75.794 92.663a62.226 62.226 0 0 0 36.768-22.14l11.026-13.775a15.967 15.967 0 0 1 4.884 20.145 162.892 162.892 0 0 1 -68.284 47.603 16.012 16.012 0 0 1 -4.419-2.7 48.528 48.528 0 0 0 20.028-29.133zm94.394 193.023h-352v-16h248.429a27.939 27.939 0 0 0 39.142 0h64.429zm-149.282-64a27.944 27.944 0 0 0 37.282 13.283v14.717a28.227 28.227 0 0 0 .3 4h-240.3v-32zm113.475-127.43a15.994 15.994 0 0 1 -4.193 31.43h-35.2a178.774 178.774 0 0 0 39.393-31.43zm-92.211 36.588a31.653 31.653 0 0 0 16.167 9.86c.775.2 1.563.357 2.355.5l.025.075c.047-.016.093-.034.14-.049a31.943 31.943 0 0 0 5.331.456h14.388l17.612 26.422v81.578a12 12 0 0 1 -24 0v-40a8 8 0 0 0 -16 0 12.178 12.178 0 0 1 -.241 2.411 12 12 0 0 1 -23.517 0 12.174 12.174 0 0 1 -.242-2.411v-44a8.005 8.005 0 0 0 -1.344-4.438l-13.248-19.875a35.511 35.511 0 0 0 15.2-5.63zm-23.982 74.842h-200v-32h200zm-200 96h352v32h-352zm0 48h352v16h-352zm352-96h-56.3a28.227 28.227 0 0 0 .3-4v-28h56zm-61.454-247.268 3.209 4.28c.313.425.62.849.905 1.265a33.374 33.374 0 0 1 4.81 26.87c-.029.115-.071.225-.1.338a7.994 7.994 0 0 0 -1.617 1.515l-15.869 19.839a46.132 46.132 0 0 1 -23.327 15.47 48.334 48.334 0 0 0 -4.573-15.562l23.722-11.819a8 8 0 0 0 .025-14.31l-7.919-3.978a8.964 8.964 0 0 1 1.454-1.2 54.431 54.431 0 0 0 19.28-22.708zm-70.046 17.068a8 8 0 0 0 7.548-.2l14.641-8.334 2.062 16.71a8 8 0 0 0 4.361 6.176l7.145 3.583-11.693 5.824a48.124 48.124 0 0 0 -12.393-8.959l-1.913-.96a48.127 48.127 0 0 0 -14.591-4.588l-2.315-12.842zm-29.4 29.741a32.667 32.667 0 0 1 31.983-1.6l1.912.96a32.5 32.5 0 0 1 3.405 56.115l-20.645 13.714a19.571 19.571 0 0 1 -30.373-15.247l-1.335-24.744a32.538 32.538 0 0 1 15.053-29.198zm-30.742 35.312 1.051 19.492a35.65 35.65 0 0 0 17.837 28.935l13.807 20.72h-167.853zm-160.358 293.147h352v32h-352zm384 32h-16v-200a8 8 0 0 0 -8-8h-64v-32h88z"/><path d="m202.343 162.343-8 8a8 8 0 0 0 11.314 11.314l8-8a8 8 0 0 0 -11.314-11.314z"/><path d="m173.657 178.343a8 8 0 0 0 -11.314 11.314l8 8a8 8 0 0 0 11.314-11.314z"/><path d="m104 280h16v16h-16z"/><path d="m176 280h16v16h-16z"/><path d="m136 360h16v16h-16z"/><path d="m216 360h16v16h-16z"/><path d="m328 360h16v16h-16z"/><path d="m256 440h16v16h-16z"/><path d="m352 440h16v16h-16z"/><path d="m88 440h16v16h-16z"/><path d="m152 440h16v16h-16z"/><path d="m240 280h16v16h-16z"/><path d="m418.343 178.343-8 8a8 8 0 0 0 11.314 11.314l8-8a8 8 0 0 0 -11.314-11.314z"/><path d="m410.343 133.657a8 8 0 0 0 11.314-11.314l-8-8a8 8 0 0 0 -11.314 11.314z"/></g></svg>