<svg height="512pt" viewBox="0 0 512 512.00008" width="512pt" xmlns="http://www.w3.org/2000/svg"><style>.st0{fill:#ffffff}</style><path class="st0" d="m503.464844 494.933594h-93.863282v-478.011719c-.054687-9.382813-7.6875-16.9492188-17.066406-16.921875h-273.070312c-9.378906-.0273438-17.011719 7.539062-17.066406 16.921875v478.011719h-93.863282c-4.714844 0-8.535156 3.820312-8.535156 8.53125 0 4.714844 3.820312 8.535156 8.535156 8.535156h494.929688c4.714844 0 8.535156-3.820312 8.535156-8.535156 0-4.710938-3.820312-8.53125-8.535156-8.53125zm-384 0v-477.867188l273.070312-.144531v478.011719zm0 0"/><path class="st0" d="m366.933594 179.199219v-128c0-4.710938-3.820313-8.53125-8.535156-8.53125h-204.796876c-4.714843 0-8.535156 3.820312-8.535156 8.53125v418.132812c0 4.714844 3.820313 8.535157 8.535156 8.535157h204.796876c4.714843 0 8.535156-3.820313 8.535156-8.535157v-110.933593c4.710937 0 8.53125-3.820313 8.53125-8.53125v-162.132813c0-4.714844-3.820313-8.535156-8.53125-8.535156zm-17.066406 281.601562h-187.734376v-401.066406h187.734376v119.464844h-8.535157c-4.710937 0-8.53125 3.820312-8.53125 8.535156 0 4.710937 3.820313 8.53125 8.53125 8.53125h17.066407v145.066406h-17.066407c-4.710937 0-8.53125 3.820313-8.53125 8.535157 0 4.710937 3.820313 8.53125 8.53125 8.53125h8.535157zm0 0"/><path class="st0" d="m179.199219 102.398438c2.265625 0 4.433593-.898438 6.035156-2.5l17.066406-17.066407c3.234375-3.347656 3.1875-8.667969-.105469-11.960937-3.292968-3.292969-8.613281-3.339844-11.960937-.105469l-17.066406 17.066406c-2.441407 2.441407-3.171875 6.113281-1.851563 9.300781 1.320313 3.1875 4.433594 5.265626 7.882813 5.265626zm0 0"/><path class="st0" d="m232.898438 70.765625-59.730469 59.734375c-2.21875 2.144531-3.109375 5.316406-2.328125 8.300781.78125 2.980469 3.109375 5.3125 6.09375 6.09375s6.15625-.109375 8.300781-2.328125l59.730469-59.734375c3.234375-3.347656 3.1875-8.667969-.101563-11.960937-3.292969-3.292969-8.613281-3.339844-11.964843-.105469zm0 0"/></svg>