<svg height="480pt" viewBox="0 0 480.38429 480" width="480pt" xmlns="http://www.w3.org/2000/svg"><path d="m427.082031.191406c-14.128906-.035156-27.6875 5.582032-37.65625 15.601563l-1.765625 1.757812c-22.480468-16.789062-51.703125-21.636719-78.402344-13.007812-21.695312 7.277343-41.414062 19.476562-57.605468 35.648437l-211.3125 211.3125c-16.164063 16.191406-28.359375 35.90625-35.625 57.601563-8.625 26.695312-3.777344 55.917969 13.007812 78.398437l-1.765625 1.761719c-13.667969 13.410156-19.082031 33.121094-14.183593 51.632813 4.894531 18.507812 19.351562 32.964843 37.859374 37.863281 18.511719 4.894531 38.226563-.519531 51.632813-14.183594l1.65625-1.648437c15.035156 11.140624 33.234375 17.1875 51.945313 17.261718 9.027343.007813 17.996093-1.4375 26.558593-4.285156 21.695313-7.265625 41.410157-19.460938 57.601563-35.625l211.359375-211.367188c16.167969-16.191406 28.359375-35.90625 35.625-57.601562 8.632812-26.699219 3.773437-55.929688-13.03125-78.398438l1.757812-1.761718c15.265625-15.226563 19.84375-38.152344 11.597657-58.074219-8.25-19.921875-27.691407-32.902344-49.253907-32.886719zm33.753907 166.023438c-6.476563 19.351562-17.347657 36.941406-31.761719 51.386718l-211.328125 211.328126c-14.441406 14.414062-32.03125 25.285156-51.382813 31.757812-20.953125 6.792969-43.878906 3.398438-61.96875-9.167969l347.265625-347.269531c12.570313 18.085938 15.964844 41.011719 9.175782 61.964844zm-431.785157 209.976562c-12.570312-18.085937-15.96875-41.011718-9.183593-61.96875 6.484374-19.347656 17.355468-36.933594 31.769531-51.382812l211.328125-211.351563c14.445312-14.414062 32.039062-25.285156 51.390625-31.761719 20.960937-6.792968 43.890625-3.398437 61.984375 9.179688l-112.9375 112.886719zm424.375-296.398437-373.484375 373.488281c-9.371094 9.605469-23.183594 13.425781-36.160156 10.007812-12.976562-3.417968-23.113281-13.550781-26.53125-26.527343-3.421875-12.976563.398438-26.789063 10-36.160157l373.488281-373.496093c14.550781-14.550781 38.140625-14.550781 52.6875 0 14.550781 14.546875 14.550781 38.136719 0 52.6875zm0 0"/><path d="m411.210938 61.542969c-14.066407-1.992188-28.273438 2.570312-38.550782 12.386719-9.816406 10.277343-14.378906 24.488281-12.382812 38.558593.300781 10.398438.542968 18.535157-7.699219 26.777344-8.238281 8.238281-16.40625 8-26.757813 7.6875-14.089843-2.339844-28.441406 2.265625-38.539062 12.363281-10.097656 10.101563-14.699219 24.453125-12.359375 38.539063.3125 10.335937.5625 18.511719-7.664063 26.730469-8.222656 8.214843-16.40625 8-26.75 7.679687-14.089843-2.347656-28.441406 2.253906-38.542968 12.351563-10.097656 10.101562-14.699219 24.453124-12.351563 38.542968.300781 10.351563.550781 18.527344-7.671875 26.746094-8.226562 8.214844-16.386718 8-26.753906 7.671875-14.078125-2.324219-28.414062 2.285156-38.5 12.378906s-14.683594 24.429688-12.347656 38.507813c.3125 10.351562.542968 18.527344-7.671875 26.75-8.214844 8.226562-16.351563 7.960937-26.738281 7.664062-14.050782-2.007812-28.25 2.542969-38.519532 12.34375l11.3125 11.3125c8.21875-8.214844 16.402344-8 26.738282-7.664062 14.050781 2.003906 28.246093-2.542969 38.519531-12.34375 9.800781-10.277344 14.351562-24.476563 12.359375-38.535156-.3125-10.34375-.542969-18.519532 7.671875-26.742188 8.214843-8.226562 16.414062-8 26.75-7.671875 14.085937 2.335937 28.433593-2.265625 38.527343-12.363281 10.09375-10.09375 14.695313-24.441406 12.355469-38.527344-.304687-10.351562-.546875-18.527344 7.671875-26.75 8.214844-8.226562 16.398438-8 26.757813-7.679688 14.085937 2.339844 28.433593-2.261718 38.527343-12.355468s14.695313-24.441406 12.355469-38.527344c-.304687-10.351562-.546875-18.519531 7.671875-26.742188 8.214844-8.222656 16.414063-8 26.757813-7.6875 14.046875 1.96875 28.226562-2.578124 38.503906-12.351562 9.8125-10.277344 14.378906-24.484375 12.386719-38.554688-.304688-10.359374-.539063-18.542968 7.695312-26.78125 8.230469-8.242187 16.390625-8 26.78125-7.699218 14.070313 1.972656 28.265625-2.585938 38.554688-12.382813l-11.3125-11.328125c-8.234375 8.242188-16.402344 8.007813-26.785156 7.695313zm0 0"/></svg>