<?xml version="1.0" encoding="iso-8859-1"?>
<!-- Generator: Adobe Illustrator 19.0.0, SVG Export Plug-In . SVG Version: 6.00 Build 0)  -->
<svg version="1.1" id="Capa_1" xmlns="http://www.w3.org/2000/svg" xmlns:xlink="http://www.w3.org/1999/xlink" x="0px" y="0px"
	 viewBox="0 0 512 512" style="enable-background:new 0 0 512 512;" xml:space="preserve">
<g>
	<g>
		<path d="M478.124,300.746h-6.123c-19.693-21.771-48.068-35.542-79.605-35.793c-55.219-51.184-139.347-53.116-196.79-5.3v-50.411
			l14.261,1.371c2.268,5.665,9.988,6.426,13.31,1.28c54.602,5.235,68.326,6.588,68.947,6.588c27.763,0,51.09-16.391,57.182-38.342
			h124.101c14.674,0,26.599-11.934,26.599-26.599s-11.924-26.599-26.599-26.599H349.306c-6.093-21.961-29.419-38.352-57.182-38.352
			c-0.241,0-0.472,0.01-0.713,0.04l-68.799,6.613c-3.404-4.045-9.775-3.413-12.338,1.185l-15.001,1.441
			c-2.391-7.795-13.821-6.697-14.68,1.411l-8.335,0.801c-10.419,0.161-18.519,6.695-18.519,15.016v0.161
			c0,9.535,8.692,17.294,19.382,17.294h7.428v3.694h-7.428c-10.69,0-19.382,7.759-19.382,17.294c0,9.535,8.692,17.294,19.382,17.294
			h7.428v3.694h-7.237c-10.79,0-19.573,7.829-19.573,17.445c0,8.321,8.1,14.865,18.519,15.026l8.291,0.797v59.798
			c-38.18-8.562-77.907,3.864-104.387,33.153H63.164c-4.155,0-7.528,3.372-7.528,7.528c0,4.165,3.372,7.528,7.528,7.528
			c48.187,0,355.876,0,401.861,0h13.099c10.105,0,18.82,8.214,18.82,18.82c0,10.378-8.441,18.82-18.82,18.82
			c-43.841,0-429.887,0-444.249,0c-10.378,0-18.82-8.441-18.82-18.82c0-10.379,8.441-18.82,18.82-18.82h-0.823
			c4.155,0,7.528-3.362,7.528-7.528c0-4.063-3.226-7.368-7.253-7.514C14.901,301.055,0,316.126,0,334.621
			c0,18.679,15.196,33.876,33.876,33.876h31.989l12.125,24.561c8.963,18.157,35.13,30.353,65.132,30.353H331.4
			c4.155,0,7.528-3.372,7.528-7.528s-3.372-7.528-7.528-7.528H143.121c-23.638,0-45.348-9.234-51.632-21.961l-8.833-17.896h346.687
			l-8.833,17.896c-6.283,12.727-27.994,21.961-51.632,21.961h-7.367c-4.165,0-7.528,3.372-7.528,7.528s3.362,7.528,7.528,7.528
			h7.367c30.001,0,56.168-12.195,65.132-30.353l12.125-24.561h31.989c18.679,0,33.876-15.196,33.876-33.876
			S496.804,300.746,478.124,300.746z M350.852,141.996h122.555c6.374,0,11.543,5.179,11.543,11.543
			c0,6.364-5.169,11.543-11.543,11.543H350.852V141.996z M224.381,189.583L224.381,189.583h26.139
			c16.164,0,24.68-15.956,15.558-26.98c-3.553-4.276-9.234-6.825-15.196-6.825h-26.5v-4.477h26.139
			c9.475,0,17.465-5.902,19.001-14.032c1.997-10.704-7.278-19.773-18.639-19.773h-26.5v-7.304l68.095-6.547
			c23.919,0.151,43.321,15.638,43.321,34.659c0,31.275,0.811,34.486-2.419,41.835c-5.892,13.46-21.982,23.176-40.902,23.286
			l-68.095-6.542V189.583z M224.381,174.527v-3.694c23.077,0.579,27.948-1.219,30.104,1.385c0.281,0.331,0.251,0.472,0.241,0.542
			c-0.09,0.452-1.666,1.767-4.206,1.767H224.381z M224.381,136.245v-3.694c23.077,0.579,27.948-1.219,30.104,1.385
			c0.281,0.331,0.251,0.482,0.241,0.542c-0.09,0.452-1.666,1.767-4.206,1.767H224.381z M195.606,112.959l13.719-1.319v5.856h-13.719
			V112.959z M195.606,132.551h13.719v3.694h-13.719V132.551z M195.606,151.301h13.719v4.477h-13.719V151.301z M195.606,170.833
			h13.719v3.694h-13.719V170.833z M195.606,189.583h13.719v5.853l-13.719-1.318V189.583z M169.077,115.9
			c1.659-0.877,1.932-0.5,11.473-1.492v3.088C176.151,117.151,171.04,118.448,169.077,115.9z M173.122,155.778
			c-2.64,0-4.326-1.475-4.326-2.238c0-0.773,1.686-2.238,4.326-2.238h7.428v4.477H173.122z M169.138,191.209
			c2.042-2.57,7.357-1.309,11.412-1.626v3.088C170.97,191.686,170.695,191.999,169.138,191.209z M165.384,293.8
			c-14.206-1.54-28.835,0.652-42.377,6.946H97.994c21.404-17.308,49.16-24.224,76.112-19.111
			C171.005,285.539,168.094,289.594,165.384,293.8z M270.193,300.746c6.584-1.767,13.5-2.71,20.627-2.71
			c7.006,0,13.811,0.913,20.285,2.62c0.11,0.03,0.221,0.06,0.331,0.09H270.193z M345.964,300.746
			c-6.437-4.655-14.081-8.842-22.313-11.894c-28.006-10.389-60.778-7.222-87.093,11.262c-0.301,0.211-0.592,0.422-0.883,0.632
			h-20.717c44.76-44.814,111.716-41.271,152.074,0H345.964z M386.886,300.746c-49.193-64.118-144.647-61.955-191.782,0h-16.27
			c53.066-80.605,171.118-80.77,224.302,0H386.886z M425.148,300.746c-1.877-0.873-3.804-1.676-5.761-2.409
			c-3.513-5.922-7.428-11.573-11.703-16.933c15.889,2.78,30.413,9.596,42.478,19.342H425.148z"/>
	</g>
</g>
<g>
	<g>
		<path d="M33.053,300.746c0.05,0,0.1,0,0.151,0.01c0.012,0,0.025,0,0.037,0c0.029,0.001,0.058,0.003,0.087,0.004
			c0.183-0.003,0.364-0.014,0.548-0.014H33.053z"/>
	</g>
</g>
<g>
</g>
<g>
</g>
<g>
</g>
<g>
</g>
<g>
</g>
<g>
</g>
<g>
</g>
<g>
</g>
<g>
</g>
<g>
</g>
<g>
</g>
<g>
</g>
<g>
</g>
<g>
</g>
<g>
</g>
</svg>
